<svg width="40" height="40" viewBox="0 0 40 40" fill="none" xmlns="http://www.w3.org/2000/svg">
<circle cx="20" cy="20" r="20" fill="#FF7235"/>
<path d="M18.944 30.488H15.44V13.832H18.944V15.704C19.792 14.36 21.016 13.688 22.616 13.688C24.184 13.688 25.44 14.248 26.384 15.368C27.344 16.472 27.824 17.976 27.824 19.88C27.824 21.688 27.36 23.184 26.432 24.368C25.52 25.552 24.248 26.144 22.616 26.144C20.968 26.144 19.744 25.496 18.944 24.2V30.488ZM18.944 19.784C18.944 20.824 19.2 21.656 19.712 22.28C20.224 22.904 20.88 23.216 21.68 23.216C22.448 23.216 23.072 22.928 23.552 22.352C24.032 21.76 24.272 20.96 24.272 19.952C24.272 18.848 24.024 18.016 23.528 17.456C23.048 16.88 22.432 16.592 21.68 16.592C20.944 16.592 20.304 16.872 19.76 17.432C19.216 17.992 18.944 18.776 18.944 19.784Z" fill="white"/>
</svg>
