<svg style="display: none;" aria-hidden="true" xmlns="http://www.w3.org/2000/svg" xmlns:xlink="http://www.w3.org/1999/xlink"><symbol viewBox="0 0 24 24" id="svg-arr-down"><path d="M4 9L12 17L20 9" stroke-width="2" stroke-linecap="round" stroke-linejoin="round"/></symbol><symbol viewBox="0 0 24 24" id="svg-arrow"><path d="M4 12H20M13 5L20 12 13 19" stroke-width="2" stroke-linecap="round" stroke-linejoin="round"/></symbol><symbol viewBox="0 0 24 24" id="svg-arrow-bold"><path d="M16.01 11H4V13H16.01V16L20 12L16.01 8V11Z"/></symbol><symbol viewBox="0 0 24 24" id="svg-backpack"><path d="M17 4.14V2H14V4H10V2H7V4.14C5.28 4.59 4 6.14 4 8V20C4 21.1 4.9 22 6 22H18C19.1 22 20 21.1 20 20V8C20 6.14 18.72 4.59 17 4.14ZM18 20H6V8C6 6.9 6.9 6 8 6H16C17.1 6 18 6.9 18 8V20ZM16.5 12V16H14.5V14H7.5V12H16.5Z"/></symbol><symbol viewBox="0 0 24 25" id="svg-check"><path d="M8.99997 16.6698L4.82997 12.4998L3.40997 13.9098L8.99997 19.4998L21 7.49984L19.59 6.08984L8.99997 16.6698Z"/></symbol><symbol viewBox="0 0 24 24" id="svg-cloud"><g clip-path="url(#fa)"><path d="M19.35 10.04C19.0141 8.33772 18.0976 6.80486 16.7571 5.70325C15.4165 4.60163 13.7351 3.99961 12 4C9.11 4 6.6 5.64 5.35 8.04C3.88023 8.19883 2.52101 8.89521 1.53349 9.99532C0.545971 11.0954 -0.000171702 12.5217 4.04928e-08 14C4.04928e-08 17.31 2.69 20 6 20H19C21.76 20 24 17.76 24 15C24 12.36 21.95 10.22 19.35 10.04ZM19 18H6C3.79 18 2 16.21 2 14C2 11.79 3.79 10 6 10H6.71C7.37 7.69 9.48 6 12 6C15.04 6 17.5 8.46 17.5 11.5V12H19C20.66 12 22 13.34 22 15C22 16.66 20.66 18 19 18Z"/></g><defs><clipPath id="fa"><path d="M0 0H24V24H0z"/></clipPath></defs></symbol><symbol viewBox="0 0 24 24" id="svg-diamond-plan"><path d="M20 2H4C2.89 2 2 2.89 2 4V15C2 16.11 2.89 17 4 17H8V22L12 20L16 22V17H20C21.11 17 22 16.11 22 15V4C22 2.89 21.11 2 20 2ZM20 15H4V13H20V15ZM20 10H4V5C4 4.45 4.45 4 5 4H19C19.55 4 20 4.45 20 5V10Z"/></symbol><symbol viewBox="0 0 20 20" id="svg-facebook"><path d="M16.875 1.25H3.125C2.62772 1.25 2.15081 1.44754 1.79917 1.79917C1.44754 2.15081 1.25 2.62772 1.25 3.125L1.25 16.875C1.25 17.3723 1.44754 17.8492 1.79917 18.2008C2.15081 18.5525 2.62772 18.75 3.125 18.75H8.48633V12.8004H6.02539V10H8.48633V7.86562C8.48633 5.43789 9.93164 4.09687 12.1453 4.09687C13.2055 4.09687 14.3141 4.28594 14.3141 4.28594V6.66875H13.0926C11.8891 6.66875 11.5137 7.41562 11.5137 8.18164V10H14.2004L13.7707 12.8004H11.5137V18.75H16.875C17.3723 18.75 17.8492 18.5525 18.2008 18.2008C18.5525 17.8492 18.75 17.3723 18.75 16.875V3.125C18.75 2.62772 18.5525 2.15081 18.2008 1.79917C17.8492 1.44754 17.3723 1.25 16.875 1.25Z"/></symbol><symbol viewBox="0 0 20 20" id="svg-linkedin"><path d="M17.5 1.25H2.49609C1.80859 1.25 1.25 1.81641 1.25 2.51172V17.4883C1.25 18.1836 1.80859 18.75 2.49609 18.75H17.5C18.1875 18.75 18.75 18.1836 18.75 17.4883V2.51172C18.75 1.81641 18.1875 1.25 17.5 1.25ZM6.53906 16.25H3.94531V7.89844H6.54297V16.25H6.53906ZM5.24219 6.75781C4.41016 6.75781 3.73828 6.08203 3.73828 5.25391C3.73828 4.42578 4.41016 3.75 5.24219 3.75C6.07031 3.75 6.74609 4.42578 6.74609 5.25391C6.74609 6.08594 6.07422 6.75781 5.24219 6.75781ZM16.2617 16.25H13.668V12.1875C13.668 11.2188 13.6484 9.97266 12.3203 9.97266C10.9688 9.97266 10.7617 11.0273 10.7617 12.1172V16.25H8.16797V7.89844H10.6562V9.03906H10.6914C11.0391 8.38281 11.8867 7.69141 13.1484 7.69141C15.7734 7.69141 16.2617 9.42188 16.2617 11.6719V16.25Z"/></symbol><symbol viewBox="0 0 24 24" id="svg-phone-link"><path d="M4 6H22V4H4C2.9 4 2 4.9 2 6V17H0V20H14V17H4V6ZM23 8H17C16.45 8 16 8.45 16 9V19C16 19.55 16.45 20 17 20H23C23.55 20 24 19.55 24 19V9C24 8.45 23.55 8 23 8ZM22 17H18V10H22V17Z"/></symbol><symbol viewBox="0 0 24 24" id="svg-silver-plan"><path d="M20 6.00004H17.82C17.93 5.69004 18 5.35004 18 5.00004C18.0011 4.35486 17.7939 3.72657 17.4092 3.20863C17.0245 2.69069 16.4829 2.31077 15.8649 2.12538C15.2469 1.93999 14.5856 1.95903 13.9794 2.17969C13.3731 2.40034 12.8542 2.81081 12.5 3.35004L12 4.02004L11.5 3.34004C10.96 2.54004 10.05 2.00004 9 2.00004C7.34 2.00004 6 3.34004 6 5.00004C6 5.35004 6.07 5.69004 6.18 6.00004H4C2.89 6.00004 2.01 6.89004 2.01 8.00004L2 19C2 20.11 2.89 21 4 21H20C21.11 21 22 20.11 22 19V8.00004C22 6.89004 21.11 6.00004 20 6.00004ZM15 4.00004C15.55 4.00004 16 4.45004 16 5.00004C16 5.55004 15.55 6.00004 15 6.00004C14.45 6.00004 14 5.55004 14 5.00004C14 4.45004 14.45 4.00004 15 4.00004ZM9 4.00004C9.55 4.00004 10 4.45004 10 5.00004C10 5.55004 9.55 6.00004 9 6.00004C8.45 6.00004 8 5.55004 8 5.00004C8 4.45004 8.45 4.00004 9 4.00004ZM20 19H4V17H20V19ZM20 14H4V8.00004H9.08L7 10.83L8.62 12L12 7.40004L15.38 12L17 10.83L14.92 8.00004H20V14Z"/></symbol><symbol viewBox="0 0 24 24" id="svg-starter-plan"><path d="M20 6H17V4C17 2.89 16.11 2 15 2H9C7.89 2 7 2.89 7 4V6H4C2.89 6 2 6.89 2 8V19C2 20.11 2.89 21 4 21H20C21.11 21 22 20.11 22 19V8C22 6.89 21.11 6 20 6ZM9 4H15V6H9V4ZM20 19H4V17H20V19ZM20 14H4V8H7V10H9V8H15V10H17V8H20V14Z"/></symbol><symbol viewBox="0 0 20 20" id="svg-twitter"><path d="M16.875 1.25H3.125C2.08984 1.25 1.25 2.08984 1.25 3.125V16.875C1.25 17.9102 2.08984 18.75 3.125 18.75H16.875C17.9102 18.75 18.75 17.9102 18.75 16.875V3.125C18.75 2.08984 17.9102 1.25 16.875 1.25ZM14.9648 7.45312C14.9727 7.5625 14.9727 7.67578 14.9727 7.78516C14.9727 11.1719 12.3945 15.0742 7.68359 15.0742C6.23047 15.0742 4.88281 14.6523 3.75 13.9258C3.95703 13.9492 4.15625 13.957 4.36719 13.957C5.56641 13.957 6.66797 13.5508 7.54688 12.8633C6.42188 12.8398 5.47656 12.1016 5.15234 11.0859C5.54688 11.1445 5.90234 11.1445 6.30859 11.0391C5.13672 10.8008 4.25781 9.76953 4.25781 8.52344V8.49219C4.59766 8.68359 4.99609 8.80078 5.41406 8.81641C5.06267 8.58267 4.7746 8.26557 4.57557 7.89342C4.37655 7.52127 4.27275 7.10563 4.27344 6.68359C4.27344 6.20703 4.39844 5.76953 4.62109 5.39062C5.88281 6.94531 7.77734 7.96094 9.90234 8.07031C9.53906 6.33203 10.8398 4.92188 12.4023 4.92188C13.1406 4.92188 13.8047 5.23047 14.2734 5.73047C14.8516 5.62109 15.4062 5.40625 15.8984 5.11328C15.707 5.70703 15.3047 6.20703 14.7734 6.52344C15.2891 6.46875 15.7891 6.32422 16.25 6.125C15.9023 6.63672 15.4648 7.08984 14.9648 7.45312Z"/></symbol></svg>